<svg xmlns="http://www.w3.org/2000/svg" viewBox="0 0 900 560" role="img" aria-labelledby="title desc">
  <title>IdeaVault screenshot preview</title>
  <desc>A mock browser screenshot showing a secure notes dashboard.</desc>
  <defs>
    <linearGradient id="bg4" x1="0" y1="0" x2="1" y2="1">
      <stop offset="0%" stop-color="#06101f" />
      <stop offset="100%" stop-color="#111827" />
    </linearGradient>
  </defs>
  <rect width="900" height="560" rx="40" fill="url(#bg4)" />
  <rect x="40" y="40" width="820" height="70" rx="22" fill="#1f2937" />
  <circle cx="90" cy="75" r="10" fill="#f97316" />
  <circle cx="130" cy="75" r="10" fill="#34d399" />
  <circle cx="170" cy="75" r="10" fill="#38bdf8" />
  <rect x="220" y="55" width="320" height="20" rx="10" fill="#334155" />
  <rect x="560" y="55" width="160" height="20" rx="10" fill="#475569" />
  <rect x="60" y="140" width="320" height="380" rx="30" fill="#111827" />
  <rect x="410" y="140" width="430" height="80" rx="24" fill="#0f172a" />
  <rect x="430" y="170" width="190" height="16" rx="8" fill="#60a5fa" />
  <rect x="430" y="202" width="240" height="14" rx="7" fill="#94a3b8" />
  <rect x="430" y="236" width="360" height="12" rx="6" fill="#1e293b" />
  <rect x="410" y="240" width="430" height="260" rx="30" fill="#0f172a" />
  <rect x="430" y="280" width="140" height="18" rx="9" fill="#38bdf8" />
  <rect x="430" y="310" width="320" height="16" rx="8" fill="#94a3b8" />
  <rect x="430" y="340" width="380" height="16" rx="8" fill="#94a3b8" />
  <rect x="430" y="370" width="240" height="16" rx="8" fill="#94a3b8" />
  <rect x="430" y="410" width="220" height="14" rx="7" fill="#1e293b" />
  <rect x="430" y="436" width="320" height="14" rx="7" fill="#1e293b" />
</svg>