<svg xmlns="http://www.w3.org/2000/svg" viewBox="0 0 900 560" role="img" aria-labelledby="title desc">
  <title>Keenkeeper screenshot preview</title>
  <desc>A mock browser screenshot showing a relationship tracker dashboard.</desc>
  <defs>
    <linearGradient id="bg2" x1="0" y1="0" x2="1" y2="1">
      <stop offset="0%" stop-color="#08101f" />
      <stop offset="100%" stop-color="#111827" />
    </linearGradient>
  </defs>
  <rect width="900" height="560" rx="40" fill="url(#bg2)" />
  <rect x="40" y="40" width="820" height="70" rx="22" fill="#1f2937" />
  <circle cx="90" cy="75" r="10" fill="#ef4444" />
  <circle cx="130" cy="75" r="10" fill="#f59e0b" />
  <circle cx="170" cy="75" r="10" fill="#10b981" />
  <rect x="220" y="55" width="320" height="20" rx="10" fill="#334155" />
  <rect x="560" y="55" width="160" height="20" rx="10" fill="#475569" />
  <rect x="60" y="140" width="230" height="360" rx="28" fill="#111827" />
  <rect x="320" y="140" width="520" height="100" rx="24" fill="#0f172a" />
  <rect x="340" y="170" width="180" height="20" rx="10" fill="#38bdf8" />
  <rect x="340" y="205" width="120" height="16" rx="8" fill="#94a3b8" />
  <rect x="340" y="235" width="420" height="18" rx="9" fill="#1e293b" />
  <rect x="340" y="270" width="420" height="18" rx="9" fill="#1e293b" />
  <rect x="340" y="305" width="420" height="18" rx="9" fill="#1e293b" />
  <rect x="340" y="350" width="520" height="120" rx="24" fill="#111827" />
  <rect x="360" y="378" width="140" height="16" rx="8" fill="#60a5fa" />
  <rect x="360" y="406" width="260" height="16" rx="8" fill="#cbd5e1" />
  <rect x="360" y="434" width="420" height="16" rx="8" fill="#cbd5e1" />
</svg>