<svg xmlns="http://www.w3.org/2000/svg" viewBox="0 0 900 560" role="img" aria-labelledby="title desc">
  <title>SkillSwap screenshot preview</title>
  <desc>A mock browser screenshot showing a freelance marketplace product page.</desc>
  <defs>
    <linearGradient id="bg3" x1="0" y1="0" x2="1" y2="1">
      <stop offset="0%" stop-color="#081018" />
      <stop offset="100%" stop-color="#111827" />
    </linearGradient>
  </defs>
  <rect width="900" height="560" rx="40" fill="url(#bg3)" />
  <rect x="40" y="40" width="820" height="70" rx="22" fill="#1f2937" />
  <circle cx="90" cy="75" r="10" fill="#ef4444" />
  <circle cx="130" cy="75" r="10" fill="#f59e0b" />
  <circle cx="170" cy="75" r="10" fill="#10b981" />
  <rect x="220" y="55" width="320" height="20" rx="10" fill="#334155" />
  <rect x="560" y="55" width="160" height="20" rx="10" fill="#475569" />
  <rect x="60" y="140" width="780" height="160" rx="26" fill="#0f172a" />
  <rect x="80" y="165" width="260" height="32" rx="16" fill="#38bdf8" />
  <rect x="80" y="212" width="190" height="14" rx="7" fill="#cbd5e1" />
  <rect x="80" y="238" width="560" height="14" rx="7" fill="#1e293b" />
  <rect x="80" y="270" width="560" height="48" rx="22" fill="#111827" />
  <rect x="80" y="330" width="220" height="120" rx="22" fill="#111827" />
  <rect x="320" y="330" width="420" height="120" rx="22" fill="#111827" />
  <rect x="100" y="350" width="120" height="14" rx="7" fill="#7dd3fc" />
  <rect x="100" y="374" width="160" height="12" rx="6" fill="#94a3b8" />
  <rect x="340" y="350" width="320" height="14" rx="7" fill="#60a5fa" />
  <rect x="340" y="376" width="260" height="12" rx="6" fill="#94a3b8" />
</svg>