<svg xmlns="http://www.w3.org/2000/svg" viewBox="0 0 900 560" role="img" aria-labelledby="title desc">
  <title>Tiles Gallery screenshot preview</title>
  <desc>A mock browser screenshot showing a premium tile gallery layout.</desc>
  <defs>
    <linearGradient id="bg" x1="0" y1="0" x2="1" y2="1">
      <stop offset="0%" stop-color="#0f172a" />
      <stop offset="100%" stop-color="#111827" />
    </linearGradient>
  </defs>
  <rect width="900" height="560" rx="40" fill="url(#bg)" />
  <rect x="40" y="40" width="820" height="70" rx="22" fill="#1f2937" />
  <circle cx="90" cy="75" r="10" fill="#f97316" />
  <circle cx="130" cy="75" r="10" fill="#34d399" />
  <circle cx="170" cy="75" r="10" fill="#38bdf8" />
  <rect x="220" y="55" width="320" height="20" rx="10" fill="#334155" />
  <rect x="560" y="55" width="160" height="20" rx="10" fill="#475569" />
  <rect x="60" y="140" width="780" height="300" rx="28" fill="#0f172a" />
  <rect x="80" y="170" width="160" height="160" rx="22" fill="#4f46e5" />
  <rect x="260" y="170" width="160" height="160" rx="22" fill="#2563eb" />
  <rect x="440" y="170" width="160" height="160" rx="22" fill="#0ea5e9" />
  <rect x="620" y="170" width="160" height="160" rx="22" fill="#22c55e" />
  <rect x="80" y="350" width="700" height="80" rx="20" fill="#1e293b" />
  <rect x="100" y="370" width="220" height="16" rx="8" fill="#94a3b8" />
  <rect x="100" y="402" width="500" height="16" rx="8" fill="#cbd5e1" />
</svg>